<mxfile host="app.diagrams.net" modified="2021-10-28T03:01:45.133Z" agent="5.0 (Macintosh; Intel Mac OS X 10_15_7) AppleWebKit/537.36 (KHTML, like Gecko) Chrome/94.0.4606.81 Safari/537.36" etag="a7mbPaWPE5F5LO49HN7S" version="15.5.9" type="github">
  <diagram id="Zl4FEeRoXpnqyhURPltx" name="Page-1">
    <mxGraphModel dx="1298" dy="841" grid="1" gridSize="10" guides="1" tooltips="1" connect="1" arrows="1" fold="1" page="1" pageScale="1" pageWidth="827" pageHeight="1169" math="0" shadow="0">
      <root>
        <mxCell id="0" />
        <mxCell id="1" parent="0" />
        <mxCell id="HRB6QKZnDYWxKy1lyRq8-1" value="DB&lt;br&gt;(app_market_white_list)" style="shape=cylinder3;whiteSpace=wrap;html=1;boundedLbl=1;backgroundOutline=1;size=15;" vertex="1" parent="1">
          <mxGeometry x="265" y="480" width="140" height="80" as="geometry" />
        </mxCell>
        <mxCell id="HRB6QKZnDYWxKy1lyRq8-13" value="" style="edgeStyle=orthogonalEdgeStyle;rounded=0;orthogonalLoop=1;jettySize=auto;html=1;" edge="1" parent="1" source="HRB6QKZnDYWxKy1lyRq8-2" target="HRB6QKZnDYWxKy1lyRq8-1">
          <mxGeometry relative="1" as="geometry" />
        </mxCell>
        <mxCell id="HRB6QKZnDYWxKy1lyRq8-2" value="eds-appcenter-core" style="rounded=1;whiteSpace=wrap;html=1;fillColor=#dae8fc;strokeColor=#6c8ebf;" vertex="1" parent="1">
          <mxGeometry x="260" y="400" width="150" height="50" as="geometry" />
        </mxCell>
        <mxCell id="HRB6QKZnDYWxKy1lyRq8-3" value="eds-appcenter-ops" style="rounded=1;whiteSpace=wrap;html=1;fillColor=#dae8fc;strokeColor=#6c8ebf;" vertex="1" parent="1">
          <mxGeometry x="520" y="400" width="150" height="50" as="geometry" />
        </mxCell>
        <mxCell id="HRB6QKZnDYWxKy1lyRq8-14" value="" style="edgeStyle=orthogonalEdgeStyle;rounded=0;orthogonalLoop=1;jettySize=auto;html=1;" edge="1" parent="1" source="HRB6QKZnDYWxKy1lyRq8-8">
          <mxGeometry relative="1" as="geometry">
            <mxPoint x="595" y="400" as="targetPoint" />
          </mxGeometry>
        </mxCell>
        <mxCell id="HRB6QKZnDYWxKy1lyRq8-8" value="web" style="shape=document;whiteSpace=wrap;html=1;boundedLbl=1;" vertex="1" parent="1">
          <mxGeometry x="520" y="330" width="150" height="40" as="geometry" />
        </mxCell>
        <mxCell id="HRB6QKZnDYWxKy1lyRq8-9" value="" style="endArrow=classic;startArrow=classic;html=1;rounded=0;entryX=0;entryY=0.5;entryDx=0;entryDy=0;exitX=1;exitY=0.5;exitDx=0;exitDy=0;" edge="1" parent="1" source="HRB6QKZnDYWxKy1lyRq8-2" target="HRB6QKZnDYWxKy1lyRq8-3">
          <mxGeometry width="50" height="50" relative="1" as="geometry">
            <mxPoint x="410" y="470" as="sourcePoint" />
            <mxPoint x="460" y="420" as="targetPoint" />
          </mxGeometry>
        </mxCell>
        <mxCell id="HRB6QKZnDYWxKy1lyRq8-10" value="HSF" style="text;html=1;strokeColor=none;fillColor=none;align=center;verticalAlign=middle;whiteSpace=wrap;rounded=0;" vertex="1" parent="1">
          <mxGeometry x="440" y="390" width="60" height="30" as="geometry" />
        </mxCell>
        <mxCell id="HRB6QKZnDYWxKy1lyRq8-11" value="HSF-Consumer" style="text;html=1;strokeColor=none;fillColor=none;align=center;verticalAlign=middle;whiteSpace=wrap;rounded=0;" vertex="1" parent="1">
          <mxGeometry x="565" y="460" width="60" height="30" as="geometry" />
        </mxCell>
        <mxCell id="HRB6QKZnDYWxKy1lyRq8-12" value="HSF-Provider" style="text;html=1;strokeColor=none;fillColor=none;align=center;verticalAlign=middle;whiteSpace=wrap;rounded=0;" vertex="1" parent="1">
          <mxGeometry x="170" y="420" width="60" height="30" as="geometry" />
        </mxCell>
      </root>
    </mxGraphModel>
  </diagram>
</mxfile>
